<svg xmlns="http://www.w3.org/2000/svg" xmlns:xlink="http://www.w3.org/1999/xlink" width="156" height="156" viewBox="0 0 156 156">
  <defs>
    <filter id="Ellipse_47" x="0" y="0" width="156" height="156" filterUnits="userSpaceOnUse">
      <feOffset dx="3" dy="6" input="SourceAlpha"/>
      <feGaussianBlur stdDeviation="12" result="blur"/>
      <feFlood flood-opacity="0.161"/>
      <feComposite operator="in" in2="blur"/>
      <feComposite in="SourceGraphic"/>
    </filter>
  </defs>
  <g id="Group_2990" data-name="Group 2990" transform="translate(-745 -469.738)">
    <g id="Group_2122" data-name="Group 2122" transform="translate(778 500.211)">
      <g transform="matrix(1, 0, 0, 1, -33, -30.47)" filter="url(#Ellipse_47)">
        <circle id="Ellipse_47-2" data-name="Ellipse 47" cx="42" cy="42" r="42" transform="translate(33 30)" fill="#fff"/>
      </g>
    </g>
    <g id="Capa_1" transform="translate(805.531 509.738)">
      <g id="Group_2184" data-name="Group 2184" transform="translate(-0.007)">
        <path id="Path_881" data-name="Path 881" d="M22.067,38.073a.977.977,0,1,0-.977-.977A.977.977,0,0,0,22.067,38.073Z" transform="translate(-8.528 -14.612)" fill="#102d69"/>
        <path id="Path_882" data-name="Path 882" d="M22.067,44.633a.977.977,0,1,0-.977-.977A.977.977,0,0,0,22.067,44.633Z" transform="translate(-8.528 -17.266)" fill="#102d69"/>
        <path id="Path_883" data-name="Path 883" d="M22.067,51.193a.977.977,0,1,0-.977-.977A.981.981,0,0,0,22.067,51.193Z" transform="translate(-8.528 -19.919)" fill="#102d69"/>
        <path id="Path_884" data-name="Path 884" d="M22.067,31.523a.977.977,0,1,0-.977-.977A.981.981,0,0,0,22.067,31.523Z" transform="translate(-8.528 -11.962)" fill="#102d69"/>
        <path id="Path_885" data-name="Path 885" d="M22.067,18.4a.977.977,0,1,0-.977-.977A.977.977,0,0,0,22.067,18.4Z" transform="translate(-8.528 -6.655)" fill="#102d69"/>
        <path id="Path_886" data-name="Path 886" d="M22.067,5.293a.977.977,0,1,0-.977-.977A.981.981,0,0,0,22.067,5.293Z" transform="translate(-8.528 -1.351)" fill="#102d69"/>
        <path id="Path_887" data-name="Path 887" d="M22.067,57.743a.977.977,0,1,0-.977-.977A.977.977,0,0,0,22.067,57.743Z" transform="translate(-8.528 -22.569)" fill="#102d69"/>
        <path id="Path_888" data-name="Path 888" d="M22.067,24.963a.977.977,0,1,0-.977-.977A.977.977,0,0,0,22.067,24.963Z" transform="translate(-8.528 -9.308)" fill="#102d69"/>
        <path id="Path_889" data-name="Path 889" d="M22.067,11.843a.976.976,0,0,0,.977-.971.977.977,0,1,0-1.953,0A.972.972,0,0,0,22.067,11.843Z" transform="translate(-8.528 -4.001)" fill="#102d69"/>
        <path id="Path_890" data-name="Path 890" d="M26.156,41.363h.018a.977.977,0,1,0-.042-1.953.977.977,0,0,0,.024,1.953Z" transform="translate(-10.182 -15.943)" fill="#102d69"/>
        <path id="Path_891" data-name="Path 891" d="M26.006,34.8h.018a.986.986,0,1,0-.018,0Z" transform="translate(-10.121 -13.289)" fill="#102d69"/>
        <path id="Path_892" data-name="Path 892" d="M26.3,47.913h.03a.986.986,0,1,0-.03,0Z" transform="translate(-10.243 -18.592)" fill="#102d69"/>
        <path id="Path_893" data-name="Path 893" d="M25.546,15.147h.024a.81.81,0,1,0-.024.006Z" transform="translate(-9.935 -5.34)" fill="#102d69"/>
        <path id="Path_894" data-name="Path 894" d="M26.433,52.52a.977.977,0,0,0,.024,1.953h.024a.977.977,0,1,0-.048-1.953Z" transform="translate(-10.303 -21.246)" fill="#102d69"/>
        <path id="Path_895" data-name="Path 895" d="M25.7,21.693h.024a.989.989,0,1,0-.024,0Z" transform="translate(-9.996 -7.985)" fill="#102d69"/>
        <path id="Path_896" data-name="Path 896" d="M25.846,28.253s.018,0,.024-.006a.81.81,0,1,0-.024.006Z" transform="translate(-10.057 -10.639)" fill="#102d69"/>
        <path id="Path_897" data-name="Path 897" d="M25.39,8.583h.03a.986.986,0,1,0-.03,0Z" transform="translate(-9.874 -2.682)" fill="#102d69"/>
        <path id="Path_898" data-name="Path 898" d="M29.151,16.3a.978.978,0,0,0,.077,1.953.34.34,0,0,0,.077-.006.977.977,0,0,0-.155-1.947Z" transform="translate(-11.425 -6.592)" fill="#102d69"/>
        <path id="Path_899" data-name="Path 899" d="M29.681,22.838a.975.975,0,0,0,.077,1.947h.077a.977.977,0,1,0-.155-1.947Z" transform="translate(-11.64 -9.238)" fill="#102d69"/>
        <path id="Path_900" data-name="Path 900" d="M30.741,35.908a.978.978,0,0,0,.083,1.953c.024,0,.048-.006.077-.006a.977.977,0,0,0-.161-1.947Z" transform="translate(-12.069 -14.525)" fill="#102d69"/>
        <path id="Path_901" data-name="Path 901" d="M30.211,29.377a.975.975,0,0,0,.077,1.947.393.393,0,0,0,.083-.006.974.974,0,1,0-.161-1.941Z" transform="translate(-11.855 -11.883)" fill="#102d69"/>
        <path id="Path_902" data-name="Path 902" d="M28.695,11.715h.077a1.023,1.023,0,1,0-.077,0Z" transform="translate(-11.208 -3.95)" fill="#102d69"/>
        <path id="Path_903" data-name="Path 903" d="M18.5,13.19a.974.974,0,0,0-1,.953.985.985,0,0,0,.953,1h.024A.977.977,0,0,0,18.5,13.19Z" transform="translate(-7.075 -5.336)" fill="#102d69"/>
        <path id="Path_904" data-name="Path 904" d="M18.05,32.85A.977.977,0,0,0,18,34.8h.024a.977.977,0,0,0,.024-1.953Z" transform="translate(-6.893 -13.289)" fill="#102d69"/>
        <path id="Path_905" data-name="Path 905" d="M18.35,19.74a.977.977,0,0,0-.048,1.953h.024a.977.977,0,0,0,.024-1.953Z" transform="translate(-7.014 -7.985)" fill="#102d69"/>
        <path id="Path_906" data-name="Path 906" d="M18.2,26.3a.977.977,0,0,0-.048,1.953h.024A.977.977,0,0,0,18.2,26.3Z" transform="translate(-6.954 -10.639)" fill="#102d69"/>
        <path id="Path_907" data-name="Path 907" d="M17.75,45.96a.977.977,0,0,0-.048,1.953h.024a.977.977,0,0,0,.024-1.953Z" transform="translate(-6.772 -18.592)" fill="#102d69"/>
        <path id="Path_908" data-name="Path 908" d="M17.9,39.41a.977.977,0,0,0-.048,1.953h.024A.977.977,0,0,0,17.9,39.41Z" transform="translate(-6.832 -15.943)" fill="#102d69"/>
        <path id="Path_909" data-name="Path 909" d="M18.6,8.583h.024a.965.965,0,1,0-.024,0Z" transform="translate(-7.136 -2.682)" fill="#102d69"/>
        <path id="Path_910" data-name="Path 910" d="M15.27,11.716h.066a.948.948,0,1,0-.066,0Z" transform="translate(-5.804 -3.951)" fill="#102d69"/>
        <path id="Path_911" data-name="Path 911" d="M13.11,44.422h.066a1.038,1.038,0,1,0-.066-.006Z" transform="translate(-4.93 -17.179)" fill="#102d69"/>
        <path id="Path_912" data-name="Path 912" d="M13.54,37.882h.066a1.038,1.038,0,1,0-.066-.006Z" transform="translate(-5.104 -14.534)" fill="#102d69"/>
        <path id="Path_913" data-name="Path 913" d="M13.974,31.346h.066a.943.943,0,1,0-.066,0Z" transform="translate(-5.282 -11.892)" fill="#102d69"/>
        <path id="Path_914" data-name="Path 914" d="M14.84,18.256h.06a.945.945,0,1,0-.06,0Z" transform="translate(-5.63 -6.597)" fill="#102d69"/>
        <path id="Path_915" data-name="Path 915" d="M14.4,24.8s.048.006.066.006A.978.978,0,1,0,13.5,23.76.966.966,0,0,0,14.4,24.8Z" transform="translate(-5.456 -9.242)" fill="#102d69"/>
        <path id="Path_916" data-name="Path 916" d="M17.726,81.161h.06a.473.473,0,0,0,.4-.524L16.047,63.893a.466.466,0,0,0-.524-.4.473.473,0,0,0-.4.524l2.144,16.744A.463.463,0,0,0,17.726,81.161Z" transform="translate(-6.11 -25.682)" fill="#102d69"/>
        <path id="Path_917" data-name="Path 917" d="M35.073,47.742a.467.467,0,1,0-.923-.149,36.549,36.549,0,0,0,.083,6.282c.22,3.692.47,7.878-.083,10.873-.935,5.032-4.913,8.986-4.954,9.027a.469.469,0,0,0-.006.661.467.467,0,0,0,.661.012,20.1,20.1,0,0,0,5.216-9.521c.578-3.108.322-7.354.1-11.1a36.29,36.29,0,0,1-.1-6.074Z" transform="translate(-11.75 -19.094)" fill="#102d69"/>
        <path id="Path_918" data-name="Path 918" d="M26.906,18.5a.466.466,0,0,0-.506-.071,13.764,13.764,0,0,0-4.317,3.763C21.5,16.06,20.868,10.855,20.41,8.42,19.528,3.775,16.444,0,13.526,0S7.482,3.7,6.643,8.426c-.459,2.566-1.125,8.3-1.715,14.565a13.3,13.3,0,0,0-4.24-4.514.481.481,0,0,0-.518.042.47.47,0,0,0-.161.494C1.426,24.021,1.1,29.44.8,34.674c-.322,5.413-.649,11,.911,16.214,1.441,4.805,4.3,7.08,7.092,8.009-.167.947-.536,3.7.53,5.008a1.9,1.9,0,0,0,1.53.709h5.371a1.9,1.9,0,0,0,1.53-.709c1.221-1.507.554-4.919.47-5.306a.457.457,0,0,0-.071-.167,11.7,11.7,0,0,0,6.919-7.574c1.8-5.222,1.417-10.82,1.054-16.238-.351-5.234-.721-10.647.905-15.643a.466.466,0,0,0-.137-.494ZM7.565,8.587C8.4,3.859,11.311.935,13.526.935s5.1,3.079,5.967,7.658c.476,2.507,1.161,8.271,1.757,14.72a21.014,21.014,0,0,0-1.4,2.364.976.976,0,1,0-.792,1.548h.066A30.348,30.348,0,0,0,17,35.549a.974.974,0,0,0-.786-.375.977.977,0,0,0,.024,1.953h.024a.944.944,0,0,0,.6-.232c-.06.732-.113,1.483-.137,2.269a.975.975,0,1,0-.4,1.864h.024a.838.838,0,0,0,.345-.077c0,.721-.012,1.4-.03,2.06a.845.845,0,0,0-.274-.036.989.989,0,0,0-.953,1,.976.976,0,0,0,.977.953h.024a1.171,1.171,0,0,0,.143-.018,40.685,40.685,0,0,1-.453,4.067,31.215,31.215,0,0,0-2.608-9.9h.012a.977.977,0,1,0-.721-1.632c-.726-1.6-1.483-3.049-2.138-4.246a.753.753,0,0,0,.167.018h.024a.977.977,0,0,0,.018-1.953.966.966,0,0,0-.935.649c-.429-.732-.774-1.3-.994-1.649v-.036a.97.97,0,0,0-.911-1.036,1.12,1.12,0,0,0-.375.048,26.033,26.033,0,0,0-1.929-4.853C6.345,17.644,7.077,11.3,7.56,8.575Zm2.751,48.542c-.089-.155-.185-.328-.286-.512a.278.278,0,0,1-.03-.06,25.878,25.878,0,0,1-2.513-9.325.66.66,0,0,0-.012-.113c-.012-.149-.024-.3-.036-.458-.018-.232-.042-.464-.054-.7-.006-.089-.012-.185-.018-.28-.018-.31-.036-.619-.048-.947,0-.065,0-.137-.006-.2-.012-.357-.018-.721-.024-1.1v-.155c0-.4,0-.8.012-1.221V41.95c.012-.447.024-.905.048-1.376v-.03c.071-1.465.214-3.031.435-4.716.012-.071.018-.143.03-.208.06-.464.131-.935.208-1.417.024-.155.054-.31.077-.464q.1-.616.214-1.25c.066-.369.131-.744.208-1.125C10.549,34.7,16.8,45.815,14.86,53.1a7.764,7.764,0,0,1-2.691,4.186.149.149,0,0,0-.042.024,8.945,8.945,0,0,1-1.179.8.018.018,0,0,0-.006-.012c-.048-.066-.1-.143-.161-.226-.024-.03-.042-.065-.066-.1-.054-.083-.119-.179-.179-.28-.042-.066-.083-.131-.125-.2-.03-.048-.06-.1-.089-.155Zm-7.7-6.508C1.1,45.565,1.426,40.057,1.742,34.727c.286-4.877.584-9.908-.5-14.69,1.608,1.387,4.722,4.895,6.181,12.112-.1.506-.179,1.006-.262,1.5-.048.286-.083.56-.125.834-.036.25-.077.5-.113.744-.042.3-.083.607-.119.905-.024.2-.048.4-.071.6-.036.316-.071.625-.1.929-.018.149-.03.3-.042.447-.107,1.155-.179,2.257-.214,3.3v.149c-.012.339-.018.673-.024,1.006v1.28c.024,1.417.107,2.721.238,3.918v.054a31.967,31.967,0,0,0,.7,4.031v.018a25.858,25.858,0,0,0,.935,3.049c.006.018.012.03.018.048.066.161.125.322.191.476,0,.012.006.018.012.03.2.476.393.9.584,1.274v.012c.054.107.107.214.167.316.018.03.03.06.048.083.048.1.1.185.149.268.018.03.03.06.048.083.149.262.292.488.417.679l.042.06c-2.6-.584-5.722-2.429-7.277-7.616ZM17.331,58.8c.191.923.518,3.537-.28,4.526a.958.958,0,0,1-.8.363H10.876a.958.958,0,0,1-.8-.363c-.715-.875-.53-3.049-.351-4.168a10.781,10.781,0,0,0,2.429.286,9.892,9.892,0,0,0,1.37-.1,14.472,14.472,0,0,0,3.817-.607v.06Zm7.884-24.1c.357,5.323.732,10.825-1,15.869-2.06,5.984-6.514,7.527-9.706,7.824a.482.482,0,0,0-.25-.113,2.21,2.21,0,0,1-.911-.417c1.953-1.846,4.329-6.288,4.293-16.983-.048-13.547,5.782-19.216,8.17-20.966-1.268,4.811-.923,9.879-.6,14.785Z" transform="translate(0.007)" fill="#102d69"/>
      </g>
    </g>
  </g>
</svg>
