<svg xmlns="http://www.w3.org/2000/svg" xmlns:xlink="http://www.w3.org/1999/xlink" width="156" height="156" viewBox="0 0 156 156">
  <defs>
    <filter id="Ellipse_29" x="3" y="6" width="156" height="156" filterUnits="userSpaceOnUse">
      <feOffset dx="3" dy="6" input="SourceAlpha"/>
      <feGaussianBlur stdDeviation="12" result="blur"/>
      <feFlood flood-opacity="0.161"/>
      <feComposite operator="in" in2="blur"/>
      <feComposite in="SourceGraphic"/>
    </filter>
    <clipPath id="clip-Okra">
      <rect width="156" height="156"/>
    </clipPath>
  </defs>
  <g id="Okra" clip-path="url(#clip-Okra)">
    <g id="Group_49" data-name="Group 49" transform="translate(-4541 -3619)">
      <g transform="matrix(1, 0, 0, 1, 4541, 3619)" filter="url(#Ellipse_29)">
        <g id="Ellipse_29-2" data-name="Ellipse 29" transform="translate(36 36)" fill="#fff" stroke="#fff" stroke-width="8">
          <circle cx="42" cy="42" r="42" stroke="none"/>
          <circle cx="42" cy="42" r="38" fill="none"/>
        </g>
      </g>
      <circle id="Ellipse_27" data-name="Ellipse 27" cx="33" cy="33" r="33" transform="translate(4586 3664)" fill="#102d69"/>
      <g id="Layer_1" data-name="Layer 1" transform="translate(4577 3655)">
        <path id="Path_442" data-name="Path 442" d="M0,42.019a41.981,41.981,0,1,1,41.179,42C18.648,83.794,0,64.956,0,42.019ZM65.4,20.071a1.549,1.549,0,0,0-.847-1.523,1.73,1.73,0,0,0-2.032.191,4.03,4.03,0,0,0-.857,1.018,3.208,3.208,0,0,1-3.629,1.637c-1.483-.224-3.01-.167-4.493-.378a2.341,2.341,0,0,0-2.638,1.4C43.442,34.8,35.444,46.807,25.2,57.138q-2.179,2.195-4.3,4.449a1.667,1.667,0,0,0-.432,2.116c.479.837,1.242.824,2.046.646.325-.074.649-.157.971-.244A50.078,50.078,0,0,0,38.5,56.978c1.239-.844,1.681-.509,2.1.7.6,1.734,1.306,3.432,1.9,5.166.562,1.64,1.47,2.236,3.127,1.989a21.436,21.436,0,0,1,6.656.01,2.425,2.425,0,0,0,3.04-1.888,37.014,37.014,0,0,1,2.648-6.656,2.627,2.627,0,0,0-1.1-3.85,48,48,0,0,1-5.062-4.1c-.82-.69-.847-1.122,0-1.915a75.334,75.334,0,0,0,10.824-12.7c1.483-2.173,2.263-4.259,1.058-6.783-.308-.646-.372-1.4-.639-2.072a1.827,1.827,0,0,1,.68-2.434c.763-.586,1.654-1.205,1.667-2.37Z" transform="translate(0 0)" fill="#fff"/>
        <path id="Path_443" data-name="Path 443" d="M66.223,118.107C78.092,107.98,87.606,95.961,97.131,83.949c.931-1.175,2-1.2,3.428-.134,1.158.86,1.259,1.654.328,2.893-8.8,11.731-18.815,22.173-31.46,29.846-.857.519-1.741,1-2.615,1.486a2.709,2.709,0,0,1-.593.07Z" transform="translate(-44.05 -55.241)" fill="#fff"/>
        <path id="Path_444" data-name="Path 444" d="M80.2,122.524c3.047-2.133,6.093-4.238,8.966-6.589a126.312,126.312,0,0,0,21.711-23.057,5.122,5.122,0,0,1,5.018-1.4c.837.382.137.86-.05,1.175a61.547,61.547,0,0,1-8.155,10.559c-.8.85-1.65,1.657-2.471,2.491-.891.907-1.661,1.9-3.237,1.567-.676-.144-1.286.549-1.828,1.045A39.056,39.056,0,0,1,94.1,113.3c-.482.288-1.048.72-1.045,1.245.007,1.557-1.2,2-2.19,2.635A46.856,46.856,0,0,1,80.2,122.52Z" transform="translate(-53.35 -60.712)" fill="#fff"/>
        <path id="Path_445" data-name="Path 445" d="M75.75,103.887C86.56,93.254,94.558,81.041,102.168,68.54c.248.181.362.224.408.308,1.329,2.387.74,4.245-.994,6.371C93.9,84.63,86.3,94.108,77.578,102.6A3.953,3.953,0,0,1,75.75,103.887Z" transform="translate(-50.39 -45.594)" fill="#fff"/>
        <path id="Path_446" data-name="Path 446" d="M166.02,68.255a2.545,2.545,0,0,1-2.943-1.359,2.485,2.485,0,0,0-1.584-1.135c-2.735-.442-2.3-2.919-3.03-4.6-.3-.686.462-.572.854-.552,1.61.09,3.227.154,4.824.352a2.769,2.769,0,0,0,3.1-1.359,10.629,10.629,0,0,1,1.041-1.3.812.812,0,0,1,1.175-.224c.439.335.275.787-.03,1.172a.491.491,0,0,1-.114.121c-2.886,1.687-2.029,4.048-1.242,6.475.773,2.39.7,2.414-2.046,2.414Z" transform="translate(-105.366 -38.519)" fill="#fff"/>
        <path id="Path_447" data-name="Path 447" d="M125.123,147.7c1.928-1.681,3.88-3.331,5.772-5.049a1.608,1.608,0,0,1,2.487-.01,42.887,42.887,0,0,0,6.425,5.316,1.54,1.54,0,0,1,.559,2.2c-1.088,1.955-1.721,4.094-2.672,6.227-.03-.218-.057-.338-.06-.455-.033-1.65-.117-3.053,1.306-4.58,1.744-1.871.275-4.141-2.538-4.366-.737-.06-1.088-.1-1.329-.971a3.377,3.377,0,0,0-2.956-2.6c-1.135-.121-2.618,1.393-3.053,2.919-.08.281.09.8-.442.67-1.292-.311-2.354.459-3.532.66l.037.04Z" transform="translate(-83.211 -94.498)" fill="#fff"/>
        <path id="Path_448" data-name="Path 448" d="M122.371,158.79c-1.081,2.29-.78,3.622,1.272,5.069.355.251.435.331.3.716-.184.512-.281,1.055-.449,1.724-.807-1.781-1.664-3.465-2.337-5.219a1.552,1.552,0,0,1,1.255-2.246l-.037-.04Z" transform="translate(-80.492 -105.629)" fill="#fff"/>
        <path id="Path_449" data-name="Path 449" d="M127.5,163.426a2.122,2.122,0,0,1-1.235-2.421c.315-1.188,1.48-1.2,2.464-1.356C126.846,160.751,126.622,161.458,127.5,163.426Z" transform="translate(-83.947 -106.201)" fill="#fff"/>
        <path id="Path_450" data-name="Path 450" d="M131.943,176.86c.177,2.554.559,2.856,3.194,2.8a2.478,2.478,0,0,1-2.893.375C131.354,179.445,131.4,178.353,131.943,176.86Z" transform="translate(-87.51 -117.649)" fill="#fff"/>
        <path id="Path_451" data-name="Path 451" d="M158.437,163.672c.824-2.441.509-3.144-1.707-3.874a2.5,2.5,0,0,1,2.665.87C160.008,161.63,159.418,162.56,158.437,163.672Z" transform="translate(-104.259 -106.263)" fill="#fff"/>
        <path id="Path_452" data-name="Path 452" d="M148.64,181.478c2.471.228,2.578.174,3.75-1.728.064.964.07,1.865-.757,2.26A2.848,2.848,0,0,1,148.64,181.478Z" transform="translate(-98.877 -119.572)" fill="#fff"/>
        <path id="Path_453" data-name="Path 453" d="M140.28,151.431a2.356,2.356,0,0,1,1.768-2.193c.854-.228,1.353.526,2.025,1.43-1.624-.7-2.986-1.055-3.793.767Z" transform="translate(-93.316 -99.248)" fill="#fff"/>
        <path id="Path_454" data-name="Path 454" d="M145.412,155.742c-.134.435-.308.86-.864.814a.8.8,0,0,1-.76-.9.7.7,0,0,1,.757-.7c.542-.02.787.291.87.787Z" transform="translate(-95.649 -103.079)" fill="#fff"/>
        <path id="Path_455" data-name="Path 455" d="M132.54,165.292c-.472-.09-.864-.308-.85-.824a.759.759,0,0,1,.844-.79.714.714,0,0,1,.74.716.8.8,0,0,1-.733.9Z" transform="translate(-87.601 -108.881)" fill="#fff"/>
        <path id="Path_456" data-name="Path 456" d="M156.952,164.218c.054.7-.258.988-.747,1.011a.742.742,0,0,1-.817-.646.759.759,0,0,1,.693-.934.7.7,0,0,1,.87.569Z" transform="translate(-103.356 -108.851)" fill="#fff"/>
        <path id="Path_457" data-name="Path 457" d="M144.3,186.441H141.86a4.1,4.1,0,0,0,1.245-1.661C143.494,185.319,143.865,185.835,144.3,186.441Z" transform="translate(-94.367 -122.918)" fill="#fff"/>
      </g>
    </g>
  </g>
</svg>
