<svg xmlns="http://www.w3.org/2000/svg" xmlns:xlink="http://www.w3.org/1999/xlink" width="156" height="156" viewBox="0 0 156 156">
  <defs>
    <filter id="Ellipse_19" x="3" y="6" width="156" height="156" filterUnits="userSpaceOnUse">
      <feOffset dx="3" dy="6" input="SourceAlpha"/>
      <feGaussianBlur stdDeviation="12" result="blur"/>
      <feFlood flood-opacity="0.161"/>
      <feComposite operator="in" in2="blur"/>
      <feComposite in="SourceGraphic"/>
    </filter>
    <clipPath id="clip-path">
      <rect id="Rectangle_56" data-name="Rectangle 56" width="47.25" height="60.677" fill="none"/>
    </clipPath>
    <clipPath id="clip-Rice-P">
      <rect width="156" height="156"/>
    </clipPath>
  </defs>
  <g id="Rice-P" clip-path="url(#clip-Rice-P)">
    <g transform="matrix(1, 0, 0, 1, 0, 0)" filter="url(#Ellipse_19)">
      <circle id="Ellipse_19-2" data-name="Ellipse 19" cx="42" cy="42" r="42" transform="translate(36 36)" fill="#fff"/>
    </g>
    <g id="Group_185" data-name="Group 185" transform="translate(54 48)">
      <g id="Group_184" data-name="Group 184" clip-path="url(#clip-path)">
        <path id="Path_1535" data-name="Path 1535" d="M10.432,25.944s7.9-1.469,18.325,15.023" transform="translate(-4.173 -10.364)" fill="none" stroke="#102d69" stroke-linecap="round" stroke-linejoin="round" stroke-width="1.255"/>
        <path id="Path_1536" data-name="Path 1536" d="M50.247,7.024s-6.9,4.87-5.849,24.362" transform="translate(-17.716 -2.81)" fill="none" stroke="#102d69" stroke-linecap="round" stroke-linejoin="round" stroke-width="1.255"/>
        <path id="Path_1537" data-name="Path 1537" d="M13.061,50.972s8.793-1.634,19.683,17.061" transform="translate(-5.224 -20.374)" fill="none" stroke="#102d69" stroke-linecap="round" stroke-linejoin="round" stroke-width="1.255"/>
        <path id="Path_1538" data-name="Path 1538" d="M5.392,50c1.606-.215,2.879-.035,3.017.544.152.638-1.193,1.109-2.8,1.324s-2.961.121-3.017-.544C2.456,50.751,3.785,50.214,5.392,50Z" transform="translate(-1.033 -19.964)" fill="none" stroke="#102d69" stroke-linecap="round" stroke-linejoin="round" stroke-width="1.255"/>
        <path id="Path_1539" data-name="Path 1539" d="M3.436,25.138c1.606-.215,2.879-.035,3.017.544.152.638-1.193,1.109-2.8,1.324s-2.961.121-3.017-.544C.5,25.891,1.829,25.354,3.436,25.138Z" transform="translate(-0.251 -10.02)" fill="none" stroke="#102d69" stroke-linecap="round" stroke-linejoin="round" stroke-width="1.255"/>
        <path id="Path_1540" data-name="Path 1540" d="M56.646,2.779c1.513-.581,2.793-.7,3.061-.168C60,3.2,58.8,3.966,57.288,4.546s-2.853.8-3.061.168C53.963,4.19,55.132,3.36,56.646,2.779Z" transform="translate(-21.676 -0.909)" fill="none" stroke="#102d69" stroke-linecap="round" stroke-linejoin="round" stroke-width="1.255"/>
        <path id="Path_1541" data-name="Path 1541" d="M13.193,54.224c1.446-.732,2.707-.981,3.028-.479.353.552-.763,1.439-2.209,2.171s-2.756,1.089-3.028.48C10.668,55.9,11.747,54.956,13.193,54.224Z" transform="translate(-4.372 -21.393)" fill="none" stroke="#102d69" stroke-linecap="round" stroke-linejoin="round" stroke-width="1.255"/>
        <path id="Path_1542" data-name="Path 1542" d="M12.416,29.024c1.446-.732,2.707-.981,3.028-.479.353.552-.763,1.439-2.209,2.171s-2.756,1.089-3.028.48C9.891,30.7,10.97,29.756,12.416,29.024Z" transform="translate(-4.061 -11.313)" fill="none" stroke="#102d69" stroke-linecap="round" stroke-linejoin="round" stroke-width="1.255"/>
        <path id="Path_1543" data-name="Path 1543" d="M17.447,33.386c1.369-.868,2.6-1.238,2.968-.769.4.515-.621,1.507-1.99,2.375s-2.639,1.349-2.968.769C15.094,35.3,16.078,34.254,17.447,33.386Z" transform="translate(-6.152 -12.965)" fill="none" stroke="#102d69" stroke-linecap="round" stroke-linejoin="round" stroke-width="1.255"/>
        <path id="Path_1544" data-name="Path 1544" d="M22.543,36.787c1.369-.868,2.6-1.238,2.968-.769.4.515-.621,1.507-1.99,2.375s-2.639,1.349-2.968.769C20.19,38.7,21.174,37.655,22.543,36.787Z" transform="translate(-8.191 -14.325)" fill="none" stroke="#102d69" stroke-linecap="round" stroke-linejoin="round" stroke-width="1.255"/>
        <path id="Path_1545" data-name="Path 1545" d="M16.9,45.087c.822,1.4,1.151,2.644.671,3-.527.388-1.483-.67-2.305-2.069s-1.261-2.686-.671-3C15.065,42.67,16.075,43.688,16.9,45.087Z" transform="translate(-5.728 -17.18)" fill="none" stroke="#102d69" stroke-linecap="round" stroke-linejoin="round" stroke-width="1.255"/>
        <path id="Path_1546" data-name="Path 1546" d="M13.168,19.988c.822,1.4,1.151,2.644.672,3-.527.388-1.484-.67-2.306-2.069s-1.261-2.686-.671-3C11.336,17.571,12.346,18.589,13.168,19.988Z" transform="translate(-4.237 -7.14)" fill="none" stroke="#102d69" stroke-linecap="round" stroke-linejoin="round" stroke-width="1.255"/>
        <path id="Path_1547" data-name="Path 1547" d="M48.6,3.364c.308,1.594.2,2.876-.365,3.049-.626.19-1.175-1.128-1.484-2.721S46.453.738,47.112.642C47.674.473,48.287,1.77,48.6,3.364Z" transform="translate(-18.621 -0.251)" fill="none" stroke="#102d69" stroke-linecap="round" stroke-linejoin="round" stroke-width="1.255"/>
        <path id="Path_1548" data-name="Path 1548" d="M53.36,10.11c1.616-.112,2.875.149,2.976.737.111.646-1.261,1.03-2.878,1.141s-2.963-.07-2.977-.737C50.382,10.672,51.743,10.222,53.36,10.11Z" transform="translate(-20.191 -4.034)" fill="none" stroke="#102d69" stroke-linecap="round" stroke-linejoin="round" stroke-width="1.255"/>
        <path id="Path_1549" data-name="Path 1549" d="M50.638,15.394c1.616-.112,2.875.149,2.976.737.111.646-1.261,1.03-2.878,1.141s-2.963-.07-2.977-.737C47.66,15.956,49.021,15.506,50.638,15.394Z" transform="translate(-19.102 -6.148)" fill="none" stroke="#102d69" stroke-linecap="round" stroke-linejoin="round" stroke-width="1.255"/>
        <path id="Path_1550" data-name="Path 1550" d="M48.69,21.046c1.616-.112,2.875.149,2.976.737.111.646-1.261,1.03-2.878,1.141s-2.963-.07-2.977-.737C45.712,21.608,47.073,21.158,48.69,21.046Z" transform="translate(-18.323 -8.408)" fill="none" stroke="#102d69" stroke-linecap="round" stroke-linejoin="round" stroke-width="1.255"/>
        <path id="Path_1551" data-name="Path 1551" d="M47.979,27.3c1.616-.112,2.875.149,2.976.737.111.646-1.261,1.03-2.878,1.141s-2.963-.07-2.977-.737C45,27.864,46.362,27.414,47.979,27.3Z" transform="translate(-18.038 -10.911)" fill="none" stroke="#102d69" stroke-linecap="round" stroke-linejoin="round" stroke-width="1.255"/>
        <path id="Path_1552" data-name="Path 1552" d="M44.36,9.979c.7,1.466.914,2.734.406,3.044-.559.34-1.419-.8-2.115-2.264s-1.021-2.786-.406-3.043C42.747,7.41,43.664,8.513,44.36,9.979Z" transform="translate(-16.768 -3.066)" fill="none" stroke="#102d69" stroke-linecap="round" stroke-linejoin="round" stroke-width="1.255"/>
        <path id="Path_1553" data-name="Path 1553" d="M40.629,16.727c1.052,1.234,1.592,2.4,1.181,2.834-.452.474-1.577-.4-2.629-1.637S37.473,15.5,38,15.09C38.406,14.665,39.578,15.493,40.629,16.727Z" transform="translate(-15.126 -5.991)" fill="none" stroke="#102d69" stroke-linecap="round" stroke-linejoin="round" stroke-width="1.255"/>
        <path id="Path_1554" data-name="Path 1554" d="M39.553,24.18c1.052,1.234,1.592,2.4,1.181,2.834-.452.474-1.577-.4-2.629-1.637s-1.708-2.425-1.181-2.834C37.33,22.118,38.5,22.946,39.553,24.18Z" transform="translate(-14.695 -8.972)" fill="none" stroke="#102d69" stroke-linecap="round" stroke-linejoin="round" stroke-width="1.255"/>
        <path id="Path_1555" data-name="Path 1555" d="M21.873,23.368c.345,1.586.269,2.871-.3,3.056-.622.2-1.2-1.1-1.544-2.687s-.361-2.946.3-3.056C20.886,20.5,21.528,21.782,21.873,23.368Z" transform="translate(-7.919 -8.266)" fill="none" stroke="#102d69" stroke-linecap="round" stroke-linejoin="round" stroke-width="1.255"/>
        <path id="Path_1556" data-name="Path 1556" d="M25.359,47.472c.4,1.573.368,2.86-.19,3.065-.614.225-1.238-1.058-1.637-2.632s-.463-2.932.19-3.065C24.273,44.639,24.96,45.9,25.359,47.472Z" transform="translate(-9.293 -17.928)" fill="none" stroke="#102d69" stroke-linecap="round" stroke-linejoin="round" stroke-width="1.255"/>
        <path id="Path_1557" data-name="Path 1557" d="M32.925,53.753c.026,1.623-.3,2.868-.892,2.938-.65.077-.96-1.316-.985-2.939s.226-2.959.892-2.938C32.523,50.745,32.9,52.13,32.925,53.753Z" transform="translate(-12.418 -20.324)" fill="none" stroke="#102d69" stroke-linecap="round" stroke-linejoin="round" stroke-width="1.255"/>
        <path id="Path_1558" data-name="Path 1558" d="M38.2,59.194c-.415,1.57-1.068,2.678-1.655,2.585-.646-.1-.566-1.528-.151-3.1S37.41,55.9,38.045,56.1C38.625,56.19,38.612,57.626,38.2,59.194Z" transform="translate(-14.427 -22.43)" fill="none" stroke="#102d69" stroke-linecap="round" stroke-linejoin="round" stroke-width="1.255"/>
        <path id="Path_1559" data-name="Path 1559" d="M19.894,56.9c1.387-.839,2.626-1.183,2.984-.706.393.524-.653,1.493-2.04,2.332s-2.667,1.293-2.984.706C17.5,58.76,18.507,57.737,19.894,56.9Z" transform="translate(-7.113 -22.39)" fill="none" stroke="#102d69" stroke-linecap="round" stroke-linejoin="round" stroke-width="1.255"/>
        <path id="Path_1560" data-name="Path 1560" d="M32.4,88.22c1.138-.688,2.155-.97,2.447-.58.323.43-.535,1.225-1.673,1.913s-2.188,1.061-2.447.58C30.433,89.749,31.257,88.909,32.4,88.22Z" transform="translate(-12.266 -34.985)" fill="none" stroke="#102d69" stroke-linecap="round" stroke-linejoin="round" stroke-width="1.255"/>
        <path id="Path_1561" data-name="Path 1561" d="M35.677,96.948c-.978-.9-1.532-1.8-1.24-2.192.322-.43,1.324.172,2.3,1.075s1.629,1.807,1.24,2.192C37.69,98.409,36.655,97.85,35.677,96.948Z" transform="translate(-13.744 -37.846)" fill="none" stroke="#102d69" stroke-linecap="round" stroke-linejoin="round" stroke-width="1.255"/>
        <path id="Path_1562" data-name="Path 1562" d="M19.282,88.877c1.311-.22,2.36-.106,2.488.365.142.518-.948.941-2.26,1.16s-2.424.178-2.488-.365C16.895,89.573,17.971,89.1,19.282,88.877Z" transform="translate(-6.805 -35.508)" fill="none" stroke="#102d69" stroke-linecap="round" stroke-linejoin="round" stroke-width="1.255"/>
        <path id="Path_1563" data-name="Path 1563" d="M23.821,95.726c1.329.037,2.336.35,2.372.838.04.536-1.111.741-2.44.7s-2.413-.292-2.372-.838C21.346,95.948,22.492,95.688,23.821,95.726Z" transform="translate(-8.552 -38.289)" fill="none" stroke="#102d69" stroke-linecap="round" stroke-linejoin="round" stroke-width="1.255"/>
        <path id="Path_1564" data-name="Path 1564" d="M24.639,61.516c1.387-.839,2.626-1.183,2.984-.706.393.524-.653,1.493-2.04,2.332s-2.667,1.293-2.984.706C22.247,63.378,23.252,62.355,24.639,61.516Z" transform="translate(-9.011 -24.237)" fill="none" stroke="#102d69" stroke-linecap="round" stroke-linejoin="round" stroke-width="1.255"/>
        <path id="Path_1565" data-name="Path 1565" d="M28.71,65.37c1.387-.839,2.626-1.183,2.984-.706.393.524-.653,1.493-2.04,2.332s-2.667,1.293-2.984.706C26.318,67.232,27.323,66.209,28.71,65.37Z" transform="translate(-10.64 -25.779)" fill="none" stroke="#102d69" stroke-linecap="round" stroke-linejoin="round" stroke-width="1.255"/>
        <path id="Path_1566" data-name="Path 1566" d="M33.1,70.143c1.29-.983,2.485-1.456,2.891-1.021.447.479-.49,1.554-1.78,2.537S31.7,73.229,31.324,72.68C30.924,72.251,31.814,71.126,33.1,70.143Z" transform="translate(-12.491 -27.584)" fill="none" stroke="#102d69" stroke-linecap="round" stroke-linejoin="round" stroke-width="1.255"/>
        <path id="Path_1567" data-name="Path 1567" d="M32.136,33.949c-.448-1.171-1.659-4.174-2.1-5.321s-1-2.225-1.486-3.314c-.467-1.1-1.078-2.1-1.608-3.12L26.133,20.7l-.879-1.408c-1.111-1.882-2.347-3.536-3.454-5.083-1.184-1.487-2.261-2.862-3.3-4-1.064-1.12-1.939-2.146-2.75-2.9C14.141,5.78,13.744,5.44,13.744,5.44a.589.589,0,0,0-.818.846l-.494-.5,2.426,2.4c.779.758,1.613,1.785,2.63,2.9.993,1.14,2.017,2.509,3.141,3.988,1.048,1.537,2.219,3.177,3.261,5.038l.826,1.391.757,1.475c.494,1,1.067,1.992,1.5,3.072.446,1.071.962,2.133,1.372,3.254l1.216,3.407,1.019,3.529c.29,1.2.536,2.406.808,3.61a63.909,63.909,0,0,1,.967,7.294c.139,1.206.134,2.411.16,3.6q.018.891.037,1.771-.039.878-.077,1.744a31.143,31.143,0,0,1-.332,4.321,3.224,3.224,0,0,0,2.608,3.738,3.421,3.421,0,0,0,3.8-2.794,65.332,65.332,0,0,0-1.676-23.21c-2.509-8.385,2.792-14.215,8.888-12.7A7.076,7.076,0,0,1,51.3,30.4a6.99,6.99,0,0,0,.419-1.342,7.191,7.191,0,0,0-5.677-8.248A11.693,11.693,0,0,0,32.442,35.4,63.758,63.758,0,0,1,33.654,62.1" transform="translate(-4.972 -2.112)" fill="none" stroke="#102d69" stroke-linecap="round" stroke-linejoin="round" stroke-width="1.255"/>
      </g>
    </g>
  </g>
</svg>
